<svg xmlns="http://www.w3.org/2000/svg" x=0 y=0 width="333" height="54" viewBox="0 0 333.34 54.11"><path d="M59.79,46.7l-4.14.09-.15-1,2.7-.39V27.17l-2.7-.39.15-1.05,4.14.09,5.91-.09c3.92,0,5.79,2.25,5.79,4.53s-2,4.47-4.74,5.19c3.93.18,6,2.46,6,5.16,0,4-3.36,5.49-8.1,6.18Zm1.56-19.53v7.89h2.49a4.34,4.34,0,0,0,4.41-4.5c0-2.1-1.29-3.48-3.75-3.54Zm2.7,18.33c4.11,0,5.4-2.61,5.4-4.77,0-2.49-1.74-4.32-4.74-4.32H61.35v8.94Z" style="fill:#333f48"/><path d="M79.11,36.56l3.42-4.2h2.4v3H82.71a6.84,6.84,0,0,0-2.85,2.13l-.6.72v7.14l3.15.3-.15,1.14-4.35-.09-3.36.09-.15-1,2.1-.3V34.49l-2.1.18-.15-1.05,3.6-.93,1.2-.09Z" style="fill:#333f48"/><path d="M90,46.7l-3.45.09-.15-1,2.1-.3V34.49l-2.1.18-.15-1.05,3.6-.93,1.5-.12V45.44l2.24.3-.14,1Zm-1.5-20.64,2.16-.15.84.15.15,1.68-.33,1.44-2.13.18-.81-.18-.18-1.68Z" style="fill:#333f48"/><path d="M107.58,42.86a3.56,3.56,0,0,0,.51,2.19h1.68l.11,1.11-4,.75-.93-2.31-3.87,2.61c-3.81,0-6.24-2.85-6.24-7,0-4.86,3-7.41,7.35-8a8.34,8.34,0,0,1,2.55.81V27.35l-2.11.06-.14-1,3.6-.93,1.5-.12Zm-3.75.72.9-.72v-8a3.88,3.88,0,0,0-3-1.2c-2.4,0-3.93,2.19-3.93,5.73,0,3.33,1.32,5.37,3.12,5.37A4.87,4.87,0,0,0,103.83,43.58Z" style="fill:#333f48"/><path d="M122.4,34,124,32.21h1.8v2.43H124l-1,.48a3.86,3.86,0,0,1,.3,1.44c0,2.55-1.78,4.35-5.85,5.4a7.26,7.26,0,0,1-1.17-.06l-1.62,1.86a1,1,0,0,0,1.17,1.05h5.49c2.73,0,3.93,1.26,3.93,3.09,0,2.46-3.12,4.86-7.66,6.21-4.34,0-6.53-1.35-6.53-4.14v-.51l3.27-2.52c-2.1-.78-2.25-1.74-2.25-3.12v-.18l3-2.07a4.22,4.22,0,0,1-3.12-4c0-2.55,1.74-4.35,5.85-5.4A5.88,5.88,0,0,1,122.4,34Zm-7,13.17c-1.53,1.68-1.65,2.22-1.65,2.64,0,1.41,1.62,2.49,4.08,2.49s4.56-1.59,4.56-3.6c0-1.08-.81-1.53-2.85-1.53Zm2-13.62c-1.62,0-2.55,1.26-2.55,3.18,0,1.44.63,3.78,3.09,3.78,1.61,0,2.55-1.11,2.55-2.85C120.48,36.14,119.85,33.59,117.39,33.59Z" style="fill:#333f48"/><path d="M130.62,46.7l-3.45.09-.15-1,2.1-.3V34.49l-2.1.18-.15-1.05,3.6-.93,1.5-.12V45.44l2.24.3-.14,1Zm-1.5-20.64,2.16-.15.84.15.15,1.68-.33,1.44-2.13.18-.81-.18-.18-1.68Z" style="fill:#333f48"/><path d="M139.47,46.7l-3.45.09-.15-1,2.1-.3V34.49l-2.1.18-.15-1.05,3.6-.93,1.29-.09.15,2.52,4.44-2.91c3.84,0,4.47,1.29,4.47,4.89v8.34l2.28.3-.16,1-3.44-.09-2.89.09-.14-1,1.5-.3V36.86c0-1.56-.7-2.25-2-2.25A6.07,6.07,0,0,0,141.72,36l-.9.6v8.88l1.65.3-.15,1Z" style="fill:#333f48"/><path d="M163.62,34l1.62-1.83H167v2.43h-1.8l-1,.48a3.86,3.86,0,0,1,.3,1.44c0,2.55-1.77,4.35-5.85,5.4a7.26,7.26,0,0,1-1.17-.06l-1.62,1.86a1,1,0,0,0,1.17,1.05h5.49c2.73,0,3.93,1.26,3.93,3.09,0,2.46-3.12,4.86-7.65,6.21-4.35,0-6.54-1.35-6.54-4.14v-.51l3.27-2.52c-2.1-.78-2.25-1.74-2.25-3.12v-.18l3-2.07a4.22,4.22,0,0,1-3.12-4c0-2.55,1.74-4.35,5.85-5.4A5.88,5.88,0,0,1,163.62,34Zm-7,13.17c-1.53,1.68-1.65,2.22-1.65,2.64,0,1.41,1.62,2.49,4.08,2.49s4.56-1.59,4.56-3.6c0-1.08-.81-1.53-2.85-1.53Zm2-13.62c-1.62,0-2.55,1.26-2.55,3.18,0,1.44.63,3.78,3.09,3.78,1.62,0,2.55-1.11,2.55-2.85C161.7,36.14,161.07,33.59,158.61,33.59Z" style="fill:#333f48"/><path d="M179.58,46.7l-4.14.09-.15-1,2.7-.39V27.17l-2.7-.39.15-1.05,4.14.09,5.91-.09c3.93,0,5.79,2.25,5.79,4.53s-2,4.47-4.74,5.19c3.92.18,6,2.46,6,5.16,0,4-3.36,5.49-8.1,6.18Zm1.55-19.53v7.89h2.49a4.35,4.35,0,0,0,4.42-4.5c0-2.1-1.29-3.48-3.75-3.54Zm2.71,18.33c4.11,0,5.4-2.61,5.4-4.77,0-2.49-1.74-4.32-4.74-4.32h-3.37v8.94Z" style="fill:#333f48"/><path d="M200.54,32.21c3.78,0,4.75,1,4.75,4.77v5.88a3.74,3.74,0,0,0,.5,2.25h1.5l.13,1-3.88.75-.92-2.31L199,47.21c-2.58,0-4.41-1.44-4.41-3.84a4.41,4.41,0,0,1,1.06-2.76l6.75-2.25v-1.5c0-1.8-.15-2.88-1.77-2.88a7.2,7.2,0,0,0-2.46.54l-.51,2.37h-2.58V34.61Zm1.9,7.35-4.36,1.8a2.27,2.27,0,0,0-.59,1.68c0,1.53.87,2.07,1.73,2.07a3.52,3.52,0,0,0,1.95-.78l1.27-.87Z" style="fill:#333f48"/><path d="M213.33,36.56l3.42-4.2h2.39v3h-2.22a6.82,6.82,0,0,0-2.84,2.13l-.61.72v7.14l3.15.3-.15,1.14-4.35-.09-3.35.09-.15-1,2.09-.3V34.49l-2.09.18-.16-1.05,3.61-.93,1.2-.09Z" style="fill:#333f48"/><path d="M225.36,36.56l3.42-4.2h2.39v3H229a6.78,6.78,0,0,0-2.85,2.13l-.61.72v7.14l3.15.3-.15,1.14-4.34-.09-3.37.09-.15-1,2.11-.3V34.49l-2.11.18-.14-1.05,3.6-.93,1.19-.09Z" style="fill:#333f48"/><path d="M236.28,46.7l-3.45.09-.16-1,2.11-.3V34.49l-2.11.18-.14-1.05,3.59-.93,1.5-.12V45.44l2.26.3-.16,1Zm-1.5-20.64,2.15-.15.85.15.14,1.68-.33,1.44-2.13.18-.81-.18-.18-1.68Z" style="fill:#333f48"/><path d="M244,39.11c0,3.42,1.83,5.85,5,5.85a7.76,7.76,0,0,0,3.75-1.26l.48,1.14A18.3,18.3,0,0,1,248,47.21c-3.63,0-6.9-2.58-6.9-7.29,0-4.44,2.67-6.81,6.78-7.71,4,0,5.31,2.49,5.31,5.64v1.26Zm6-1.5c0-2.31-.45-3.9-2.75-3.9-1.83,0-3,1.71-3.25,4.2Z" style="fill:#333f48"/><path d="M259.58,36.56l3.42-4.2h2.4v3h-2.22a6.84,6.84,0,0,0-2.85,2.13l-.6.72v7.14l3.15.3-.15,1.14-4.35-.09-3.36.09-.14-1,2.09-.3V34.49l-2.09.18-.16-1.05,3.6-.93,1.2-.09Z" style="fill:#333f48"/><path d="M274.85,34.34a4.66,4.66,0,0,0-2.28-.66c-1.17,0-2.28.63-2.28,1.77,0,1,.75,1.56,2.1,2.25l2.31,1.17c2,1,2.82,2.16,2.82,3.87,0,2.7-2.19,3.72-5.64,4.47a10.28,10.28,0,0,1-4.56-1.35l-.57-3.39h1.92l1,2.49a4.51,4.51,0,0,0,2.46.75,2.19,2.19,0,0,0,2.4-2.28c0-1.17-.63-1.68-2.19-2.49L270,39.71a4.07,4.07,0,0,1-2.52-3.48c0-2.1,1.95-3.27,5.43-4a8,8,0,0,1,4.23,1.35v3h-1.59Z" style="fill:#333f48"/><polygon points="20.93 18.04 20.97 18.04 20.97 18.02 20.93 18.02 20.93 18.04 20.93 18.04" style="fill:#be5927"/><path d="M26.38,13.5a21.39,21.39,0,0,0-3.19-.35,6.36,6.36,0,0,0-1.39.15L21.57,7V5.89a4.34,4.34,0,0,1,1.69-.27,21.3,21.3,0,0,1,3,.3c.94.14,1.92.28,2.91.34l.28,7.6a30.59,30.59,0,0,1-3.05-.36Zm-10.86,0c-1,.15-2,.31-3,.36l.27-7.6c1-.06,2-.2,2.92-.34a21.3,21.3,0,0,1,3-.3,4.34,4.34,0,0,1,1.69.27V7L20.1,13.3a6.43,6.43,0,0,0-1.39-.15,21.39,21.39,0,0,0-3.19.35ZM31.68,9V7.56h-.89V5.1h-.61a26.17,26.17,0,0,1-3.77-.37,23.19,23.19,0,0,0-3.15-.32A5.32,5.32,0,0,0,21,4.85a5.32,5.32,0,0,0-2.31-.44,23,23,0,0,0-3.15.32,26.16,26.16,0,0,1-3.78.37h-.6V7.56h-.89V9h.89v2h-.88v1.44h.88v2.68h.6a27.51,27.51,0,0,0,4-.4,20.76,20.76,0,0,1,3-.33,3.5,3.5,0,0,1,1.66.32h1.16a3.5,3.5,0,0,1,1.66-.32,20.76,20.76,0,0,1,3,.33,27.38,27.38,0,0,0,4,.4h.61V12.41h.88V11h-.88V9Z" style="fill:#be5927"/><path d="M15.69,7l-.18,0c-.57.08-1.14.17-1.72.23l0,1c.65-.07,1.28-.16,1.9-.26h0V7Z" style="fill:#be5927"/><path d="M16.41,6.91v1a13.17,13.17,0,0,1,2.78-.17l0-1a13.75,13.75,0,0,0-2.81.16Z" style="fill:#be5927"/><path d="M15.69,11.42l-.18,0c-.62.09-1.25.18-1.88.25l0,1c.7-.07,1.39-.17,2.06-.27h0v-1Z" style="fill:#be5927"/><path d="M16.41,11.32v1A14.74,14.74,0,0,1,19,12.1l0-.95a13.69,13.69,0,0,0-2.66.17Z" style="fill:#be5927"/><path d="M15.54,9.24v1h.11a18,18,0,0,1,3.46-.3l0-1a17.77,17.77,0,0,0-3.61.29Z" style="fill:#be5927"/><path d="M14.82,9.34l-1.11.15,0,1,1.15-.14v-1Z" style="fill:#be5927"/><path d="M25.05,6.85a12.17,12.17,0,0,0-2.38-.1l0,1a11.35,11.35,0,0,1,2.34.12v-1Z" style="fill:#be5927"/><path d="M28.11,7.27C27.53,7.21,27,7.12,26.39,7L25.77,7v1l.48.07c.62.1,1.25.19,1.9.26l0-1Z" style="fill:#be5927"/><path d="M24.85,9A10.78,10.78,0,0,0,22.75,9l0,1a11.47,11.47,0,0,1,2.06.1V9Z" style="fill:#be5927"/><path d="M28.19,9.49c-.61-.07-1.21-.16-1.8-.25l-.82-.11v1l.68.1c.65.09,1.3.19,2,.26l0-1Z" style="fill:#be5927"/><path d="M26.29,12.41c.66.1,1.33.19,2,.26l0-1c-.64-.07-1.26-.16-1.88-.25h-.1v1Z" style="fill:#be5927"/><path d="M25.57,11.33a14.59,14.59,0,0,0-2.74-.18l0,.95a14,14,0,0,1,2.7.21v-1Z" style="fill:#be5927"/><path d="M19.7,26.88,21,23.75l1.25,3.13,3.37.23L23,29.27l.83,3.27L21,30.74l-2.86,1.8.83-3.27-2.59-2.16,3.37-.23Zm-7.64-1.11h0l5.45,4-2.1,6.45s0,0,0,0h0l5.49-4,5.49,4h0s0,0,0-.05l-2.09-6.43,5.45-4h0a0,0,0,0,0,0-.09H23.08L21,19.28h0a.05.05,0,0,0-.05-.05,0,0,0,0,0-.05.05h0l-2.08,6.4H12.09a0,0,0,0,0-.06,0,0,0,0,0,0,0,.06Z" style="fill:#be5927"/><path d="M34.46,33.86A3.59,3.59,0,0,1,32.63,35a3.61,3.61,0,0,1,2.74-3,3.54,3.54,0,0,1-.91,1.93Zm-2.63-4.23a3.65,3.65,0,0,1,.36-2.11,3.62,3.62,0,0,1,.53,4.05,3.73,3.73,0,0,1-.89-1.94Zm1.46-5.51A3.69,3.69,0,0,1,33.52,22a3.66,3.66,0,0,1,1,1.89A3.58,3.58,0,0,1,34.29,26a3.67,3.67,0,0,1-1-1.88Zm3.48,1.6a3.61,3.61,0,0,1-.49,2.08,3.53,3.53,0,0,1-1.56,1.45,3.6,3.6,0,0,1,.48-2.08,3.66,3.66,0,0,1,1.57-1.45ZM31.43,39.41a3.56,3.56,0,0,1-2,.69,3.57,3.57,0,0,1,1.28-1.71,3.5,3.5,0,0,1,2-.68,3.61,3.61,0,0,1-1.29,1.7Zm-1.7-4.69a3.57,3.57,0,0,1,.79-2,3.66,3.66,0,0,1-.32,4.07,3.61,3.61,0,0,1-.47-2.09Zm-1.9,4.91a3.66,3.66,0,0,1-1.18,1.78A3.61,3.61,0,0,1,27.8,37.5a3.52,3.52,0,0,1,0,2.13Zm1.1,3.18a3.62,3.62,0,0,1-1.61,1.41,3.68,3.68,0,0,1-1.46.31h0a3.49,3.49,0,0,1-.65-.06,3.62,3.62,0,0,1,3.72-1.66Zm-6.29.29a3.57,3.57,0,0,1,1.53-1.5,3.66,3.66,0,0,1-.42,2.09,3.61,3.61,0,0,1-1.52,1.5,3.7,3.7,0,0,1,.41-2.09Zm-8.13,1.12a3.62,3.62,0,0,1-1.61-1.41,3.64,3.64,0,0,1,3.72,1.66,3.64,3.64,0,0,1-2.11-.25ZM14,39.63a3.6,3.6,0,0,1,0-2.13,3.55,3.55,0,0,1,1.18,1.78,3.6,3.6,0,0,1,0,2.13A3.53,3.53,0,0,1,14,39.63Zm3.66,2a3.62,3.62,0,0,1,1.94,3.59,3.61,3.61,0,0,1-1.52-1.5,3.66,3.66,0,0,1-.42-2.09Zm-7.27-2.19a3.66,3.66,0,0,1-1.28-1.7,3.5,3.5,0,0,1,2,.68,3.57,3.57,0,0,1,1.28,1.71,3.61,3.61,0,0,1-2-.69Zm.92-6.67a3.64,3.64,0,0,1,.79,2,3.69,3.69,0,0,1-.47,2.09,3.63,3.63,0,0,1-.79-2,3.67,3.67,0,0,1,.47-2.08ZM7.36,33.86a3.6,3.6,0,0,1-.9-1.93A3.5,3.5,0,0,1,8.29,33,3.54,3.54,0,0,1,9.2,35a3.62,3.62,0,0,1-1.84-1.09Zm-.25-4.61A3.6,3.6,0,0,1,5.54,27.8a3.68,3.68,0,0,1-.48-2.08,3.66,3.66,0,0,1,1.57,1.45,3.6,3.6,0,0,1,.48,2.08Zm.2-5.37a3.49,3.49,0,0,1,1-1.89,3.64,3.64,0,0,1-.77,4,3.58,3.58,0,0,1-.23-2.12Zm1.44,5.58a3.66,3.66,0,0,1,.89-1.94,3.63,3.63,0,0,1-.53,4.05,3.65,3.65,0,0,1-.36-2.11Zm25.72.91a4.55,4.55,0,0,0,2.65-2.08A4.68,4.68,0,0,0,37.63,25l-.12-.5L37,24.6a4.67,4.67,0,0,0-1.55.8,4.42,4.42,0,0,0,0-1.7,4.57,4.57,0,0,0-1.81-2.85l-.42-.31L33,21a4.57,4.57,0,0,0,1.17,6.15,4.53,4.53,0,0,0-.35,1.23,4.56,4.56,0,0,0-1.39-2l-.4-.33-.3.42a4.6,4.6,0,0,0,.81,6.22l0,0a4.69,4.69,0,0,0-.62,1.17,4.65,4.65,0,0,0-1-2.22l-.32-.4-.38.35a4.62,4.62,0,0,0-1.48,3,4.57,4.57,0,0,0,1,3.22l0,0a4.56,4.56,0,0,0-.85,1,4.66,4.66,0,0,0-.48-2.37l-.23-.46-.44.26a4.61,4.61,0,0,0-1.78,6l0,0a4.64,4.64,0,0,0-1.05.82,4.62,4.62,0,0,0,0-2.42l-.13-.5-.49.17a4.59,4.59,0,0,0-3,5.42l-.47.31-.46-.31a4.58,4.58,0,0,0-3-5.42L17,40.29l-.13.5a4.52,4.52,0,0,0,0,2.42,4.64,4.64,0,0,0-1-.82v0A4.56,4.56,0,0,0,16.13,39a4.63,4.63,0,0,0-2.08-2.67l-.44-.26-.23.46a4.56,4.56,0,0,0-.48,2.37,4.35,4.35,0,0,0-.85-1l0,0a4.57,4.57,0,0,0,1-3.22,4.62,4.62,0,0,0-1.48-3l-.38-.35-.32.4a4.56,4.56,0,0,0-1,2.22,4.69,4.69,0,0,0-.62-1.17l0,0a4.6,4.6,0,0,0,.81-6.22l-.3-.42-.4.33a4.56,4.56,0,0,0-1.39,2,4.53,4.53,0,0,0-.35-1.23,4.57,4.57,0,0,0,1.8-2.84A4.64,4.64,0,0,0,8.86,21l-.27-.44-.42.31a4.57,4.57,0,0,0-1.81,2.84,4.68,4.68,0,0,0,0,1.71,4.52,4.52,0,0,0-1.54-.8l-.49-.15L4.2,25a4.58,4.58,0,0,0,3.16,5.42l.44.13a4.07,4.07,0,0,0,.27,1.08A4.56,4.56,0,0,0,6,30.88l-.51,0v.51a4.66,4.66,0,0,0,1.19,3.16,4.59,4.59,0,0,0,3,1.49l.45,0a4.56,4.56,0,0,0,.49,1A4.58,4.58,0,0,0,9,36.74a3.77,3.77,0,0,0-.58,0l-.51.06.09.51a4.61,4.61,0,0,0,1.82,2.84,4.53,4.53,0,0,0,2.69.87l.57,0,.45-.06a4.48,4.48,0,0,0,.69.87A4.65,4.65,0,0,0,12,42l-.49.17.2.48A4.56,4.56,0,0,0,16,45.49a4.56,4.56,0,0,0,1.51-.25l.36-.13a26.81,26.81,0,0,0,2.21,1.66c-.43.28-.89.59-1.42.92l.91.56c.51-.33,1-.62,1.37-.9l1.38.9.91-.56c-.53-.33-1-.64-1.42-.92A26.81,26.81,0,0,0,24,45.11l.36.13a4.56,4.56,0,0,0,1.51.25h0a4.55,4.55,0,0,0,1.85-.39,4.61,4.61,0,0,0,2.37-2.41l.2-.48L29.79,42a4.54,4.54,0,0,0-2.19-.19,4.81,4.81,0,0,0,.68-.88l.45.06a5.63,5.63,0,0,0,.58,0h0a4.58,4.58,0,0,0,4.5-3.71l.1-.51-.51-.06a3.77,3.77,0,0,0-.58,0,4.54,4.54,0,0,0-1.6.29,5.07,5.07,0,0,0,.49-1l.45,0a4.59,4.59,0,0,0,3-1.49,4.66,4.66,0,0,0,1.19-3.16v-.51l-.51,0a4.52,4.52,0,0,0-2.09.7A4.07,4.07,0,0,0,34,30.5l.44-.13Z" style="fill:#be5927"/><path d="M34.59,40.55a25.08,25.08,0,0,1-3.46,4.07,36.73,36.73,0,0,1-10.19,6.5,36.87,36.87,0,0,1-10.18-6.5A25.08,25.08,0,0,1,7.3,40.55c-4.75-6.94-5.37-15-5.37-21.26h0l19-1.05,19,1.05c0,6.26-.63,14.32-5.37,21.26ZM2.94,3.13C6.48,2.74,14.42,2,21,2s14.47.79,18,1.18l1,13.93H2l1-13.93Zm39-1.61-.84-.11A197.93,197.93,0,0,0,21,0h0A197.65,197.65,0,0,0,.85,1.41L0,1.52V17.06H0v2.17c0,6.54.65,15,5.71,22.41a26.53,26.53,0,0,0,3.64,4.3h0l0,0a54.89,54.89,0,0,0,11.56,8h0a55.16,55.16,0,0,0,11.56-8l0,0h0a27,27,0,0,0,3.64-4.3c5.06-7.4,5.71-15.87,5.71-22.41v-.31h0V1.52Z" style="fill:#be5927"/><path d="M71.94,17.07l-1.88.06-.1-.7,1-.2V10.51c0-1-.48-1.5-1.28-1.5a4.82,4.82,0,0,0-2.12.9l-.6.38v5.94l1.1.2-.1.7L66,17.07l-2.1.06-.1-.7,1.2-.2V4l-.72.12-4.06-.06V16.17l2.3.26-.1.7-3.24-.06-3.36.06-.1-.7,2.4-.26V4.05l-3,.06-.92,2.5h-.78V3.07l5.74,0,4.92,0,2.14-.24h.68V9.31l2.92-1.9c2.56,0,3,1,3,3.5v5.32l1.5.2-.1.7Z" style="fill:#be5927"/><path d="M77.14,12c0,2.28,1.22,3.9,3.32,3.9a5.18,5.18,0,0,0,2.5-.84l.32.76a12.2,12.2,0,0,1-3.5,1.58,4.53,4.53,0,0,1-4.6-4.86c0-3,1.78-4.54,4.52-5.14,2.64,0,3.54,1.66,3.54,3.76V12Zm4-1c0-1.54-.3-2.6-1.84-2.6-1.22,0-2,1.14-2.16,2.8Z" style="fill:#be5927"/><path d="M97.06,3.79l.1-.7,2.56.06,2.34-.06.1.7-1.7.26v8.16c0,2.6-1.06,4.34-5,5.26-3.94,0-5.34-2.12-5.34-5.3V4.05l-1.8-.26.1-.7,2.76.06,2.74-.06.1.7-1.7.26v8.42c0,2.48,1.06,3.9,3.34,3.9,2.08,0,3.24-1.4,3.24-4V4.05Z" style="fill:#be5927"/><path d="M104.86,17.07l-2.3.06-.1-.7,1.4-.2V8.93l-1.4.12-.1-.7,2.4-.62.86-.06.1,1.68,3-1.94c2.56,0,3,.86,3,3.26v5.56l1.52.2-.1.7-2.3-.06-1.92.06-.1-.7,1-.2V10.51c0-1-.46-1.5-1.32-1.5a4,4,0,0,0-2.08.9l-.6.4v5.92l1.1.2-.1.7Z" style="fill:#be5927"/><path d="M116.32,17.07l-2.3.06-.1-.7,1.4-.2V8.93l-1.4.12-.1-.7,2.4-.62,1-.08v8.58l1.5.2-.1.7Zm-1-13.76,1.44-.1.56.1.1,1.12-.22,1-1.42.12-.54-.12-.12-1.12Z" style="fill:#be5927"/><path d="M124.34,15.83l2.42-7.24-.92-.2.1-.7,1.76.06,1.66-.06.1.7-1.28.2-3.28,8.22-1.46.6L120,8.59l-1.24-.2.1-.7,2.3.06,2.1-.06.1.7-1.32.2,2.18,5.86Z" style="fill:#be5927"/><path d="M131.42,12c0,2.28,1.22,3.9,3.32,3.9a5.18,5.18,0,0,0,2.5-.84l.32.76a12.2,12.2,0,0,1-3.5,1.58,4.53,4.53,0,0,1-4.6-4.86c0-3,1.78-4.54,4.52-5.14,2.64,0,3.54,1.66,3.54,3.76V12Zm4-1c0-1.54-.3-2.6-1.84-2.6-1.22,0-2,1.14-2.16,2.8Z" style="fill:#be5927"/><path d="M142,10.31l2.28-2.8h1.6v2H144.4a4.56,4.56,0,0,0-1.9,1.42l-.4.48v4.76l2.1.2-.1.76-2.9-.06-2.24.06-.1-.7,1.4-.2V8.93l-1.4.12-.1-.7,2.4-.62.8-.06Z" style="fill:#be5927"/><path d="M152.18,8.83a3.11,3.11,0,0,0-1.52-.44c-.78,0-1.52.42-1.52,1.18s.5,1,1.4,1.5l1.54.78c1.34.68,1.88,1.44,1.88,2.58,0,1.8-1.46,2.48-3.76,3a6.85,6.85,0,0,1-3-.9l-.38-2.26h1.28l.68,1.66a3,3,0,0,0,1.64.5,1.46,1.46,0,0,0,1.6-1.52c0-.78-.42-1.12-1.46-1.66l-1.58-.82a2.7,2.7,0,0,1-1.68-2.32c0-1.4,1.3-2.18,3.62-2.68a5.35,5.35,0,0,1,2.82.9v2h-1.06Z" style="fill:#be5927"/><path d="M157.7,17.07l-2.3.06-.1-.7,1.4-.2V8.93l-1.4.12-.1-.7,2.4-.62,1-.08v8.58l1.5.2-.1.7Zm-1-13.76,1.44-.1.56.1.1,1.12-.22,1-1.42.12-.54-.12-.12-1.12Z" style="fill:#be5927"/><path d="M167.62,21.82v-2h1.72l2-3-.8.24-3.36-8.42h-3v6.1c0,.58.22,1.2,1.06,1.2a4.22,4.22,0,0,0,1.76-.56l.34.68-2.52,1.38c-2.24,0-2.54-.8-2.54-2.6v-6h-2V8.51l.71-.7h1.3V6.51l1.3-1.3h.52v2.5h6.3l.1.68-1.32.2,2.22,5.86.16,1.38,2.48-7.24-.92-.2.1-.7,1.76.06,1.66-.06.1.7-1.28.2-3.24,8.18L170,21.82Z" style="fill:#be5927"/><path d="M189.94,12.21c0,3-1.82,4.7-4.92,5.2a4.47,4.47,0,0,1-4.47-4.78c0-3,1.83-4.7,4.93-5.22A4.48,4.48,0,0,1,189.94,12.21Zm-4.42,4.22c1.6,0,2.42-1.64,2.42-3.8,0-2.54-1.22-4.24-3-4.24s-2.42,1.64-2.42,3.82S183.74,16.43,185.52,16.43Z" style="fill:#be5927"/><path d="M194.44,7.91h2.5v.94h-2.5v7.38l2.3.14-.1.76-3.1-.06-2.3.06-.11-.7,1.41-.2V8.85h-1.76V8.51l.6-.7h1.16v-.2a3.88,3.88,0,0,1,1.1-2.8l1.68-1.9h2.52v1.6h-2.6l-.38.54a3.76,3.76,0,0,0-.42,2.26Z" style="fill:#be5927"/><path d="M212.24,17.13,209,17.07l-3.37.06-.09-.7,2.4-.26V4.05l-3,0L204,6.63h-.78V3.09l5.75.06,5.76-.06V6.63H214L213,4.09l-3,0V16.17l2.3.26Z" style="fill:#be5927"/><path d="M215.79,12c0,2.28,1.23,3.9,3.33,3.9a5.18,5.18,0,0,0,2.5-.84l.32.76a12.2,12.2,0,0,1-3.5,1.58,4.54,4.54,0,0,1-4.61-4.86c0-3,1.79-4.54,4.53-5.14,2.64,0,3.54,1.66,3.54,3.76V12Zm4-1c0-1.54-.3-2.6-1.84-2.6-1.22,0-2,1.14-2.16,2.8Z" style="fill:#be5927"/><path d="M226.46,16.43l-.1.7-1.57-.06-2.06.06-.1-.7,1.41-.2,3-3.64-2.91-4-1.24-.2.11-.72,2.3.06,1.9-.06.1.72-.78.2L228,10.83l.16.52L230,8.61l-1-.2.1-.72,1.56.06,2.06-.06.1.72-1.44.2-2.64,3.2,3.14,4.42,1.24.2-.1.7-2.3-.06-1.9.06-.1-.7.82-.2-1.78-2.58-.16-.46-2.12,3Z" style="fill:#be5927"/><path d="M237.79,7.41c2.53,0,3.17.64,3.17,3.18v3.92a2.43,2.43,0,0,0,.34,1.5h1l.08.7-2.58.5-.62-1.54-2.39,1.74c-1.72,0-2.94-1-2.94-2.56a3,3,0,0,1,.7-1.84l4.51-1.5v-1c0-1.2-.1-1.92-1.18-1.92a4.91,4.91,0,0,0-1.65.36l-.34,1.58h-1.72V9Zm1.27,4.9-2.91,1.2a1.56,1.56,0,0,0-.4,1.12c0,1,.58,1.38,1.17,1.38a2.33,2.33,0,0,0,1.29-.52l.85-.58Z" style="fill:#be5927"/><path d="M248.58,8.83a3.12,3.12,0,0,0-1.53-.44c-.77,0-1.51.42-1.51,1.18s.5,1,1.4,1.5l1.54.78c1.34.68,1.88,1.44,1.88,2.58,0,1.8-1.46,2.48-3.76,3a6.9,6.9,0,0,1-3-.9l-.38-2.26h1.29l.67,1.66a3,3,0,0,0,1.65.5,1.46,1.46,0,0,0,1.6-1.52c0-.78-.42-1.12-1.46-1.66l-1.59-.82a2.7,2.7,0,0,1-1.68-2.32c0-1.4,1.31-2.18,3.63-2.68a5.35,5.35,0,0,1,2.82.9v2H249Z" style="fill:#be5927"/><path d="M260.44,7.41c2.52,0,3.16.64,3.16,3.18v3.92a2.43,2.43,0,0,0,.34,1.5h1l.08.7-2.58.5-.62-1.54-2.39,1.74c-1.72,0-2.94-1-2.94-2.56a2.93,2.93,0,0,1,.7-1.84l4.51-1.5v-1c0-1.2-.1-1.92-1.18-1.92a4.69,4.69,0,0,0-1.64.36l-.34,1.58h-1.73V9Zm1.26,4.9-2.91,1.2a1.52,1.52,0,0,0-.4,1.12c0,1,.58,1.38,1.16,1.38a2.37,2.37,0,0,0,1.31-.52l.84-.58Z" style="fill:#be5927"/><path d="M264.91,8.85V8.51l.71-.7h1.3V6.51l1.29-1.3h.53V8h3v.9h-3v5.86c0,.58.22,1.2,1.06,1.2a3.37,3.37,0,0,0,1.58-.48l.34.68-2.34,1.3c-2.25,0-2.54-.8-2.54-2.6v-6Z" style="fill:#be5927"/><path d="M280.2,12.43l-1.31,3.74,1.74.26-.09.7-2.41-.06-2.14.06-.1-.7,1.56-.22,5-13,1.2-.34,5.22,13.3,1.56.22-.1.7-2.76-.06-2.64.06-.1-.7,1.7-.26-1.36-3.74Zm2.66-6.22-.15-1.08-2.2,6.36h4.27Z" style="fill:#be5927"/><path d="M298.9,14.51a3.27,3.27,0,0,0,.24,1.5h1l.08.7-2.59.5-.55-1.62-2.91,1.82c-2.64,0-3.08-.94-3.08-3.26V8.93l-1.4.1-.1-.78,2.4-.52,1-.08v6.66c0,1,.44,1.5,1.42,1.5a4.89,4.89,0,0,0,2.19-1l.4-.26V8.93l-1.21.1-.09-.78,2.2-.52,1-.08Z" style="fill:#be5927"/><path d="M306.52,8.83A3.2,3.2,0,0,0,305,8.39c-.78,0-1.52.42-1.52,1.18s.5,1,1.41,1.5l1.54.78c1.34.68,1.87,1.44,1.87,2.58,0,1.8-1.46,2.48-3.75,3a6.86,6.86,0,0,1-3.05-.9l-.38-2.26h1.28l.68,1.66a3,3,0,0,0,1.64.5,1.46,1.46,0,0,0,1.6-1.52c0-.78-.42-1.12-1.46-1.66l-1.58-.82a2.7,2.7,0,0,1-1.68-2.32c0-1.4,1.3-2.18,3.62-2.68a5.39,5.39,0,0,1,2.83.9v2H307Z" style="fill:#be5927"/><path d="M308.93,8.85V8.51l.7-.7h1.3V6.51l1.3-1.3h.52V8h3v.9h-3v5.86c0,.58.22,1.2,1.05,1.2a3.37,3.37,0,0,0,1.59-.48l.34.68-2.34,1.3c-2.25,0-2.54-.8-2.54-2.6v-6Z" style="fill:#be5927"/><path d="M319.31,17.07l-2.3.06-.1-.7,1.4-.2V8.93l-1.4.12-.1-.7,2.4-.62,1-.08v8.58l1.5.2-.09.7Zm-1-13.76,1.44-.1.56.1.1,1.12-.22,1-1.42.12-.54-.12-.12-1.12Z" style="fill:#be5927"/><path d="M325,17.07l-2.3.06-.1-.7,1.4-.2V8.93l-1.4.12-.1-.7,2.4-.62.86-.06.1,1.68,3-1.94c2.56,0,3,.86,3,3.26v5.56l1.52.2-.1.7-2.3-.06-1.93.06-.1-.7,1-.2V10.51c0-1-.46-1.5-1.33-1.5a4,4,0,0,0-2.08.9l-.6.4v5.92l1.1.2-.1.7Z" style="fill:#be5927"/></svg>